<svg xmlns="http://www.w3.org/2000/svg" enable-background="new 0 0 64 64" viewBox="0 0 64 64"><path fill="#F94646" d="M40,3H24C12.4,3,3,12.4,3,24v16c0,11.6,9.4,21,21,21h16c11.6,0,21-9.4,21-21V24C61,12.4,51.6,3,40,3z"/><path fill="#E2E2E2" d="M36.8,32L48,20.8c0.6-0.6,1-1.5,1-2.4c0-0.9-0.4-1.8-1-2.4c-1.3-1.3-3.5-1.3-4.8,0L32,27.2L20.8,16
			c-1.3-1.3-3.5-1.3-4.8,0c-0.6,0.6-1,1.5-1,2.4c0,0.9,0.4,1.8,1,2.4L27.2,32L16,43.2c-0.6,0.6-1,1.5-1,2.4s0.4,1.8,1,2.4
			c0.6,0.6,1.5,1,2.4,1c0.9,0,1.8-0.4,2.4-1L32,36.8L43.2,48c1.3,1.3,3.5,1.3,4.8,0c0.6-0.6,1-1.5,1-2.4c0-0.9-0.4-1.8-1-2.4
			L36.8,32z"/></svg>